<svg xmlns="http://www.w3.org/2000/svg" xmlns:xlink="http://www.w3.org/1999/xlink" width="887.5px" height="785.5px">
  <path fill="rgb(0, 0, 0)" d="M774.933,198.919 C774.783,199.115 774.653,199.302 774.500,199.500 C421.503,656.815 4.500,601.500 4.500,601.500 C468.901,522.115 678.270,145.358 681.462,139.569 C647.927,123.641 612.500,108.500 612.500,108.500 L832.500,1.500 L832.500,248.500 C832.500,248.500 804.345,223.068 774.933,198.919 ZM262.500,485.500 L262.500,66.500 L424.500,66.500 L424.500,383.500 C424.500,383.500 390.893,408.956 353.500,432.500 C310.312,459.693 262.500,485.500 262.500,485.500 ZM425.500,537.500 L425.500,783.500 L261.375,783.500 L261.375,600.1000 C261.375,600.1000 304.557,589.341 345.500,573.500 C386.619,557.591 425.500,537.500 425.500,537.500 ZM612.500,419.500 L885.500,781.500 L687.500,781.500 L481.500,509.500 C481.500,509.500 519.563,486.816 553.500,463.500 C584.970,441.880 612.500,419.500 612.500,419.500 Z"/>
</svg>
