<svg 
 xmlns="http://www.w3.org/2000/svg"
 xmlns:xlink="http://www.w3.org/1999/xlink"
 width="790.5px" height="783.5px">
<path fill-rule="evenodd" fill="rgb(0, 0, 0)"
 d="M677.500,199.500 C324.503,656.815 3.500,558.500 3.500,558.500 C357.050,519.432 581.070,145.262 584.460,139.567 C550.925,123.641 515.500,108.500 515.500,108.500 L735.500,1.500 L735.500,248.500 C735.500,248.500 707.348,223.071 677.938,198.923 C677.790,199.116 677.650,199.306 677.500,199.500 ZM165.500,485.500 L165.500,66.500 L327.500,66.500 L327.500,383.500 C327.500,383.500 293.893,408.956 256.500,432.500 C213.312,459.693 165.500,485.500 165.500,485.500 ZM328.500,535.500 L328.500,781.500 L164.375,781.500 L164.375,598.1000 C164.375,598.1000 207.557,587.341 248.500,571.500 C289.619,555.591 328.500,535.500 328.500,535.500 ZM515.500,417.500 L788.500,779.500 L590.500,779.500 L384.500,507.500 C384.500,507.500 422.563,484.816 456.500,461.500 C487.970,439.880 515.500,417.500 515.500,417.500 Z"/>
</svg>